<svg width="1280" height="720" viewBox="0 0 1280 720" fill="none" xmlns="http://www.w3.org/2000/svg">
  <rect width="1280" height="720" rx="32" fill="#030712"/>
  <rect x="64" y="64" width="720" height="320" rx="28" fill="url(#grad)"/>
  <rect x="64" y="440" width="720" height="176" rx="24" fill="#0f172a" stroke="rgba(148,163,184,0.3)" stroke-width="2"/>
  <rect x="848" y="64" width="368" height="552" rx="28" fill="#111827" stroke="rgba(148,163,184,0.25)" stroke-width="2"/>
  <rect x="888" y="104" width="288" height="44" rx="12" fill="rgba(148,163,184,0.25)"/>
  <rect x="888" y="172" width="288" height="44" rx="12" fill="rgba(148,163,184,0.25)"/>
  <rect x="888" y="240" width="288" height="44" rx="12" fill="rgba(148,163,184,0.25)"/>
  <rect x="888" y="308" width="288" height="156" rx="18" fill="#1f2937"/>
  <rect x="888" y="488" width="288" height="96" rx="18" fill="#1f2937"/>
  <text x="96" y="120" font-family="Playfair Display, Georgia, serif" font-size="48" fill="#f8fafc">Ristorante Aurora</text>
  <text x="96" y="170" font-family="Manrope, 'Segoe UI', sans-serif" font-size="24" fill="#cbd5f5">Cucina mediterranea contemporanea</text>
  <rect x="96" y="220" width="180" height="48" rx="24" fill="#5eead4"/>
  <rect x="292" y="220" width="180" height="48" rx="24" fill="transparent" stroke="#f8fafc" stroke-width="2"/>
  <rect x="96" y="470" width="200" height="120" rx="18" fill="#111827" stroke="rgba(148,163,184,0.3)"/>
  <rect x="324" y="470" width="200" height="120" rx="18" fill="#111827" stroke="rgba(148,163,184,0.3)"/>
  <rect x="552" y="470" width="200" height="120" rx="18" fill="#111827" stroke="rgba(148,163,184,0.3)"/>
  <defs>
    <linearGradient id="grad" x1="64" y1="64" x2="784" y2="384" gradientUnits="userSpaceOnUse">
      <stop stop-color="#94a3b8"/>
      <stop offset="1" stop-color="#cbd5f5"/>
    </linearGradient>
  </defs>
</svg>

